<?xml version="1.0" encoding="UTF-8"?>
<svg id="Layer_1" xmlns="http://www.w3.org/2000/svg" xmlns:xlink="http://www.w3.org/1999/xlink" viewBox="0 0 512 512">
  <defs>
    <style>
      .cls-1 {
        fill: #fff;
      }

      .cls-2 {
        fill: url(#linear-gradient);
      }
    </style>
    <linearGradient id="linear-gradient" x1="74.98" y1="74.98" x2="437.02" y2="437.02" gradientUnits="userSpaceOnUse">
      <stop offset="0" stop-color="#582bac"/>
      <stop offset=".54" stop-color="#2c1665"/>
      <stop offset="1" stop-color="#060527"/>
    </linearGradient>
  </defs>
  <path class="cls-2" d="M512,256c0,.33,0,.66-.01.99-.52,140.59-114.41,254.48-255,255-.33.01-.66.01-.99.01C114.62,512,0,397.38,0,256,0,177.28,35.54,106.85,91.44,59.89c9.98-8.38,20.61-16.02,31.81-22.82C161.96,13.55,207.4,0,256,0c141.38,0,256,114.62,256,256Z"/>
  <path class="cls-1" d="M368.68,159.56c-1.03-3.67-3.47-6.88-7.31-9.66-32-20.81-63.65-37.46-94.94-49.94-45.9-18.29-86.79-24.95-122.67-19.96-.89.12-1.75-.35-2.12-1.18l-17.41-39.73s0-.01,0-.02c-.51-1.08-1.86-1.48-2.88-.85-10.05,6.22-19.63,13.13-28.69,20.63-.72.6-.93,1.61-.52,2.45l5.91,11.97c14.23,30.61,25.43,61.89,33.59,93.87.36,1.43-.88,2.74-2.33,2.48-12.84-2.32-26.15-3.5-39.9-3.54-14.86-.04-28.27,2.29-40.21,6.98-11.95,4.7-20.27,12.92-24.96,24.69-3.09,7.76-4.07,17.6-2.93,29.52,2.69,18.12,10.41,34.53,23.16,49.22,12.74,14.69,28.13,27.57,46.2,38.64,18.05,11.08,36.17,20.23,54.37,27.49,28.08,11.19,45.59,15.85,52.55,13.97,4.11-1.12,7.08-3.89,8.91-8.35.04-.1.08-.21.1-.32l.68-2.8c12.13-44.31,26.21-88.16,42.24-131.53.26-.72.91-1.23,1.67-1.31,5.38-.54,10.17.04,14.4,1.72,9.89,3.95,16.98,11.65,21.24,23.12,4.27,11.46,4.74,21.34,1.44,29.63-4.05,10.17-12.45,14.1-25.17,11.82-4.98-.74-9.02-.11-12.15,1.9-3.12,2.01-5.38,4.75-6.77,8.23-1.81,4.55-1.88,9.56-.18,15.03,1.68,5.45,5.16,9.23,10.44,11.37.08.03.16.06.24.08l3.92,1.13c.09.03.18.05.27.06,15.4,2.4,28.93-.17,40.6-7.73,11.69-7.58,20.11-17.79,25.23-30.62,4.79-12.04,5.87-25.25,3.24-39.63-2.96-13.57-8.82-25.52-17.57-35.83-8.76-10.3-19.15-17.86-31.18-22.66-14.99-5.97-31.11-6.35-48.37-1.15-2.28.33-5.15,1.77-8.62,4.34-.07.05-.14.11-.21.17-1.83,1.66-3.17,3.51-4.01,5.54-.04.1-.07.2-.1.31l-.81,3.12c-.02.07-.04.13-.06.19-14.81,39.47-27.97,79.28-39.49,119.46-.32,1.12-1.53,1.74-2.63,1.33l-14.17-5.25c-39.59-15.78-69.5-36.38-89.74-61.81-9.81-13.51-13.37-23.62-10.7-30.31,2.66-6.68,9.67-10.47,21.04-11.37,11.35-.89,23.36-.29,36.01,1.8,12.65,2.1,22.95,4.43,30.93,6.99,5.45,1.86,10.38,1.74,14.79-.38,4.41-2.12,7.57-5.58,9.49-10.4,1.17-2.92,1.67-6.1,1.52-9.53,0-.06,0-.12-.01-.17-2.47-24.61-8.04-49.03-16.73-73.25-.45-1.26.42-2.62,1.76-2.69,28.35-1.51,60.03,4.71,95.03,18.67,27.79,11.08,55.89,25.99,84.35,44.75.06.04.11.07.17.1l3.65,1.89c.08.04.16.08.24.11,5.31,2.08,10.43,1.73,15.4-1.07,4.99-2.81,8.39-6.49,10.21-11.04,1.38-3.47,1.57-7.04.55-10.7Z"/>
  <path class="cls-1" d="M511.99,256.99c-.52,140.59-114.41,254.48-255,255-35.87-163.81,217.42-142.05,255-255Z"/>
</svg>